#VRML V2.0 utf8
Shape { appearance Appearance { material Material { diffuseColor 0.1 0.1 0.1 } } geometry IndexedFaceSet { coord Coordinate { point [ -1.27 -21.59 0, 1.27 -21.59 0, 1.27 1.27 0, -1.27 1.27 0, -1.27 -21.59 8.5, 1.27 -21.59 8.5, 1.27 1.27 8.5, -1.27 1.27 8.5 ] } coordIndex [ 0,3,2,1,-1, 4,5,6,7,-1, 0,1,5,4,-1, 1,2,6,5,-1, 2,3,7,6,-1, 3,0,4,7,-1 ] } } Shape { appearance Appearance { material Material { diffuseColor 0.1 0.1 0.1 } } geometry IndexedFaceSet { coord Coordinate { point [ 13.97 -21.59 0, 16.51 -21.59 0, 16.51 1.27 0, 13.97 1.27 0, 13.97 -21.59 8.5, 16.51 -21.59 8.5, 16.51 1.27 8.5, 13.97 1.27 8.5 ] } coordIndex [ 0,3,2,1,-1, 4,5,6,7,-1, 0,1,5,4,-1, 1,2,6,5,-1, 2,3,7,6,-1, 3,0,4,7,-1 ] } } Shape { appearance Appearance { material Material { diffuseColor 0.05 0.05 0.08 } } geometry IndexedFaceSet { coord Coordinate { point [ -1.38 -21.82 8.5, 16.62 -21.82 8.5, 16.62 1.56 8.5, -1.38 1.56 8.5, -1.38 -21.82 9.6, 16.62 -21.82 9.6, 16.62 1.56 9.6, -1.38 1.56 9.6 ] } coordIndex [ 0,3,2,1,-1, 4,5,6,7,-1, 0,1,5,4,-1, 1,2,6,5,-1, 2,3,7,6,-1, 3,0,4,7,-1 ] } } Shape { appearance Appearance { material Material { diffuseColor 0.75 0.75 0.78 } } geometry IndexedFaceSet { coord Coordinate { point [ 3.2 -4 9.6, 12.04 -4 9.6, 12.04 3.3 9.6, 3.2 3.3 9.6, 3.2 -4 12.8, 12.04 -4 12.8, 12.04 3.3 12.8, 3.2 3.3 12.8 ] } coordIndex [ 0,3,2,1,-1, 4,5,6,7,-1, 0,1,5,4,-1, 1,2,6,5,-1, 2,3,7,6,-1, 3,0,4,7,-1 ] } } Shape { appearance Appearance { material Material { diffuseColor 0.85 0.7 0.6 } } geometry IndexedFaceSet { coord Coordinate { point [ 3.5 -21.8 9.6, 11.7 -21.8 9.6, 11.7 -17.6 9.6, 3.5 -17.6 9.6, 3.5 -21.8 10.4, 11.7 -21.8 10.4, 11.7 -17.6 10.4, 3.5 -17.6 10.4 ] } coordIndex [ 0,3,2,1,-1, 4,5,6,7,-1, 0,1,5,4,-1, 1,2,6,5,-1, 2,3,7,6,-1, 3,0,4,7,-1 ] } } 