#VRML V2.0 utf8
Shape { appearance Appearance { material Material { diffuseColor 0.05 0.45 0.2 } } geometry IndexedFaceSet { coord Coordinate { point [ -1.37 -6.92 0, 24.23 -6.92 0, 24.23 4.38 0, -1.37 4.38 0, -1.37 -6.92 1.2, 24.23 -6.92 1.2, 24.23 4.38 1.2, -1.37 4.38 1.2 ] } coordIndex [ 0,3,2,1,-1, 4,5,6,7,-1, 0,1,5,4,-1, 1,2,6,5,-1, 2,3,7,6,-1, 3,0,4,7,-1 ] } } Shape { appearance Appearance { material Material { diffuseColor 0.08 0.08 0.08 } } geometry IndexedFaceSet { coord Coordinate { point [ 8.7 -3 1.2, 14.2 -3 1.2, 14.2 0.5 1.2, 8.7 0.5 1.2, 8.7 -3 2.8, 14.2 -3 2.8, 14.2 0.5 2.8, 8.7 0.5 2.8 ] } coordIndex [ 0,3,2,1,-1, 4,5,6,7,-1, 0,1,5,4,-1, 1,2,6,5,-1, 2,3,7,6,-1, 3,0,4,7,-1 ] } } Shape { appearance Appearance { material Material { diffuseColor 0.7 0.7 0.7 } } geometry IndexedFaceSet { coord Coordinate { point [ 9.5 -4.6 1.2, 13.4 -4.6 1.2, 13.4 -3 1.2, 9.5 -3 1.2, 9.5 -4.6 1.5, 13.4 -4.6 1.5, 13.4 -3 1.5, 9.5 -3 1.5 ] } coordIndex [ 0,3,2,1,-1, 4,5,6,7,-1, 0,1,5,4,-1, 1,2,6,5,-1, 2,3,7,6,-1, 3,0,4,7,-1 ] } } Shape { appearance Appearance { material Material { diffuseColor 0.1 0.1 0.1 } } geometry IndexedFaceSet { coord Coordinate { point [ -1.27 -3.81 1.2, 1.27 -3.81 1.2, 1.27 1.27 1.2, -1.27 1.27 1.2, -1.27 -3.81 3.7, 1.27 -3.81 3.7, 1.27 1.27 3.7, -1.27 1.27 3.7 ] } coordIndex [ 0,3,2,1,-1, 4,5,6,7,-1, 0,1,5,4,-1, 1,2,6,5,-1, 2,3,7,6,-1, 3,0,4,7,-1 ] } } Shape { appearance Appearance { material Material { diffuseColor 0.1 0.1 0.1 } } geometry IndexedFaceSet { coord Coordinate { point [ 21.59 -3.81 1.2, 24.13 -3.81 1.2, 24.13 1.27 1.2, 21.59 1.27 1.2, 21.59 -3.81 3.7, 24.13 -3.81 3.7, 24.13 1.27 3.7, 21.59 1.27 3.7 ] } coordIndex [ 0,3,2,1,-1, 4,5,6,7,-1, 0,1,5,4,-1, 1,2,6,5,-1, 2,3,7,6,-1, 3,0,4,7,-1 ] } } 